<svg width="18" height="16" viewBox="0 0 18 16" fill="none" xmlns="http://www.w3.org/2000/svg">
<path d="M8.64194 3.69832C6.19016 3.69832 4.21255 5.43612 4.21255 7.59058C4.21255 9.74504 6.19016 11.4828 8.64194 11.4828C11.0937 11.4828 13.0713 9.74504 13.0713 7.59058C13.0713 5.43612 11.0937 3.69832 8.64194 3.69832ZM8.64194 10.1211C7.05754 10.1211 5.76226 8.98623 5.76226 7.59058C5.76226 6.19492 7.05368 5.0601 8.64194 5.0601C10.2302 5.0601 11.5216 6.19492 11.5216 7.59058C11.5216 8.98623 10.2263 10.1211 8.64194 10.1211ZM14.2857 3.53911C14.2857 4.04385 13.8231 4.44696 13.2525 4.44696C12.6781 4.44696 12.2194 4.04046 12.2194 3.53911C12.2194 3.03776 12.682 2.63125 13.2525 2.63125C13.8231 2.63125 14.2857 3.03776 14.2857 3.53911ZM17.2193 4.46051C17.1538 3.24439 16.8377 2.16716 15.8238 1.27963C14.8138 0.392105 13.5879 0.114329 12.204 0.0533534C10.7776 -0.0177844 6.50242 -0.0177844 5.07607 0.0533534C3.69598 0.110941 2.47009 0.388717 1.45623 1.27625C0.442361 2.16378 0.130106 3.24101 0.0607162 4.45712C-0.0202387 5.71051 -0.0202387 9.46726 0.0607162 10.7206C0.126251 11.9368 0.442361 13.014 1.45623 13.9015C2.47009 14.789 3.69212 15.0668 5.07607 15.1278C6.50242 15.1989 10.7776 15.1989 12.204 15.1278C13.5879 15.0702 14.8138 14.7924 15.8238 13.9015C16.8338 13.014 17.1499 11.9368 17.2193 10.7206C17.3003 9.46726 17.3003 5.71389 17.2193 4.46051ZM15.3766 12.0655C15.0759 12.7294 14.4938 13.241 13.7344 13.5086C12.5972 13.9049 9.89867 13.8134 8.64194 13.8134C7.38521 13.8134 4.68286 13.9015 3.54949 13.5086C2.79391 13.2443 2.21181 12.7328 1.90726 12.0655C1.45623 11.0662 1.56031 8.69491 1.56031 7.59058C1.56031 6.48625 1.46008 4.1116 1.90726 3.11567C2.20795 2.45171 2.79005 1.9402 3.54949 1.67259C4.68671 1.27625 7.38521 1.36771 8.64194 1.36771C9.89867 1.36771 12.601 1.27963 13.7344 1.67259C14.49 1.93681 15.0721 2.44833 15.3766 3.11567C15.8277 4.11499 15.7236 6.48625 15.7236 7.59058C15.7236 8.69491 15.8277 11.0696 15.3766 12.0655Z" fill="white"/>
</svg>
