<svg width="20" height="15" viewBox="0 0 20 15" fill="none" xmlns="http://www.w3.org/2000/svg">
<path fill-rule="evenodd" clip-rule="evenodd" d="M9.62229 4.42077L9.5795 3.80247C9.45119 2.20003 10.5773 0.736367 12.3593 0.16862C13.015 -0.033286 14.1269 -0.0585242 14.8539 0.118143C15.139 0.193858 15.6808 0.446165 16.0656 0.673309L16.7641 1.0897L17.5339 0.875215C17.9616 0.761605 18.5318 0.572356 18.7883 0.446165C19.0307 0.332631 19.2445 0.269498 19.2445 0.307392C19.2445 0.52188 18.7171 1.25371 18.2752 1.65745C17.6764 2.22527 17.8476 2.27575 19.0592 1.89717C19.7863 1.68269 19.8004 1.68269 19.658 1.92241C19.5724 2.0486 19.1305 2.49024 18.66 2.89397C17.8617 3.58799 17.819 3.6637 17.819 4.2441C17.819 5.13995 17.3343 7.00735 16.8496 8.02938C15.9516 9.94726 14.0271 11.9282 12.1027 12.925C9.39421 14.3256 5.78759 14.6789 2.75126 13.8587C1.73916 13.5811 0 12.8745 0 12.7484C0 12.7105 0.527411 12.66 1.16895 12.6475C2.50892 12.6222 3.84888 12.2941 4.9893 11.7137L5.75914 11.31L4.87526 11.045C3.6208 10.6664 2.49465 9.79583 2.20959 8.9757C2.12399 8.71074 2.15252 8.69808 2.95082 8.69808L3.77764 8.6855L3.07912 8.3953C2.2523 8.02938 1.49681 7.41109 1.12615 6.78021C0.855269 6.32599 0.513229 5.17777 0.613005 5.08947C0.641452 5.05165 0.940864 5.12729 1.28299 5.22824C2.26657 5.54368 2.39487 5.46797 1.82467 4.93804C0.755494 3.97914 0.427634 2.55329 0.940864 1.20324L1.18321 0.597594L2.12399 1.41772C4.04852 3.07064 6.31509 4.05485 8.90951 4.34506L9.62229 4.42077Z" fill="white"/>
</svg>
